<mxfile host="app.diagrams.net" modified="2023-06-28T14:47:57.259Z" agent="Mozilla/5.0 (Windows NT 10.0; Win64; x64) AppleWebKit/537.36 (KHTML, like Gecko) Chrome/114.0.0.0 Safari/537.36" etag="MtGr_3TAe-Bt6NyBrNLo" version="21.5.1" type="github">
  <diagram name="Page-1" id="oCGQXqjiFZy_4bb0X0cF">
    <mxGraphModel dx="819" dy="505" grid="1" gridSize="10" guides="1" tooltips="1" connect="1" arrows="1" fold="1" page="1" pageScale="1" pageWidth="1169" pageHeight="827" math="0" shadow="0">
      <root>
        <mxCell id="0" />
        <mxCell id="1" parent="0" />
        <mxCell id="JkkX-00-tPhVeV8dNCcb-36" style="edgeStyle=orthogonalEdgeStyle;shape=connector;rounded=0;orthogonalLoop=1;jettySize=auto;html=1;exitX=0;exitY=0.64;exitDx=0;exitDy=0;exitPerimeter=0;entryX=0.8555;entryY=0.145;entryDx=0;entryDy=0;entryPerimeter=0;shadow=0;labelBackgroundColor=default;strokeColor=default;fontFamily=Helvetica;fontSize=1;fontColor=default;endArrow=none;endFill=0;" edge="1" parent="1" source="JkkX-00-tPhVeV8dNCcb-1" target="JkkX-00-tPhVeV8dNCcb-9">
          <mxGeometry relative="1" as="geometry" />
        </mxCell>
        <mxCell id="JkkX-00-tPhVeV8dNCcb-1" value="ISP 1" style="points=[[0,0.64,0],[0.2,0.15,0],[0.4,0.01,0],[0.79,0.25,0],[1,0.65,0],[0.8,0.86,0],[0.41,1,0],[0.16,0.86,0]];verticalLabelPosition=bottom;sketch=0;html=1;verticalAlign=top;aspect=fixed;align=center;pointerEvents=1;shape=mxgraph.cisco19.cloud2;fillColor=#FFE9AA;strokeColor=none;" vertex="1" parent="1">
          <mxGeometry x="460" y="310" width="70.83" height="42.5" as="geometry" />
        </mxCell>
        <mxCell id="JkkX-00-tPhVeV8dNCcb-29" style="edgeStyle=orthogonalEdgeStyle;shape=connector;rounded=0;orthogonalLoop=1;jettySize=auto;html=1;exitX=1;exitY=0.5;exitDx=0;exitDy=0;exitPerimeter=0;entryX=0.5;entryY=0;entryDx=0;entryDy=0;entryPerimeter=0;shadow=0;labelBackgroundColor=default;strokeColor=default;fontFamily=Helvetica;fontSize=1;fontColor=default;endArrow=none;endFill=0;" edge="1" parent="1" source="JkkX-00-tPhVeV8dNCcb-6" target="JkkX-00-tPhVeV8dNCcb-9">
          <mxGeometry relative="1" as="geometry" />
        </mxCell>
        <mxCell id="JkkX-00-tPhVeV8dNCcb-6" value="" style="sketch=0;points=[[0.015,0.015,0],[0.985,0.015,0],[0.985,0.985,0],[0.015,0.985,0],[0.25,0,0],[0.5,0,0],[0.75,0,0],[1,0.25,0],[1,0.5,0],[1,0.75,0],[0.75,1,0],[0.5,1,0],[0.25,1,0],[0,0.75,0],[0,0.5,0],[0,0.25,0]];verticalLabelPosition=bottom;html=1;verticalAlign=top;aspect=fixed;align=center;pointerEvents=1;shape=mxgraph.cisco19.rect;prIcon=l2_switch;fillColor=#FAFAFA;strokeColor=#005073;" vertex="1" parent="1">
          <mxGeometry x="215" y="240" width="50" height="50" as="geometry" />
        </mxCell>
        <mxCell id="JkkX-00-tPhVeV8dNCcb-9" value="&lt;blockquote style=&quot;margin: 0 0 0 40px; border: none; padding: 0px;&quot;&gt;&lt;blockquote style=&quot;margin: 0 0 0 40px; border: none; padding: 0px;&quot;&gt;&lt;div style=&quot;&quot;&gt;&lt;br&gt;&lt;/div&gt;&lt;/blockquote&gt;&lt;/blockquote&gt;&lt;div style=&quot;text-align: justify;&quot;&gt;&lt;/div&gt;" style="sketch=0;points=[[0.5,0,0],[1,0.5,0],[0.5,1,0],[0,0.5,0],[0.145,0.145,0],[0.8555,0.145,0],[0.855,0.8555,0],[0.145,0.855,0]];verticalLabelPosition=bottom;html=1;verticalAlign=top;aspect=fixed;align=center;pointerEvents=1;shape=mxgraph.cisco19.rect;prIcon=router;fillColor=#FAFAFA;strokeColor=#005073;" vertex="1" parent="1">
          <mxGeometry x="336.65999999999997" y="345" width="50" height="50" as="geometry" />
        </mxCell>
        <mxCell id="JkkX-00-tPhVeV8dNCcb-32" style="edgeStyle=orthogonalEdgeStyle;shape=connector;rounded=0;orthogonalLoop=1;jettySize=auto;html=1;exitX=1;exitY=0.5;exitDx=0;exitDy=0;exitPerimeter=0;entryX=0;entryY=0.5;entryDx=0;entryDy=0;entryPerimeter=0;shadow=0;labelBackgroundColor=default;strokeColor=default;fontFamily=Helvetica;fontSize=1;fontColor=default;endArrow=none;endFill=0;" edge="1" parent="1" source="JkkX-00-tPhVeV8dNCcb-11" target="JkkX-00-tPhVeV8dNCcb-28">
          <mxGeometry relative="1" as="geometry" />
        </mxCell>
        <mxCell id="JkkX-00-tPhVeV8dNCcb-11" value="File Share" style="sketch=0;points=[[0.015,0.015,0],[0.985,0.015,0],[0.985,0.985,0],[0.015,0.985,0],[0.25,0,0],[0.5,0,0],[0.75,0,0],[1,0.25,0],[1,0.5,0],[1,0.75,0],[0.75,1,0],[0.5,1,0],[0.25,1,0],[0,0.75,0],[0,0.5,0],[0,0.25,0]];verticalLabelPosition=bottom;html=1;verticalAlign=top;aspect=fixed;align=center;pointerEvents=1;shape=mxgraph.cisco19.server;fillColor=#005073;strokeColor=none;" vertex="1" parent="1">
          <mxGeometry x="131.25" y="452.5" width="27.500000000000004" height="50" as="geometry" />
        </mxCell>
        <mxCell id="JkkX-00-tPhVeV8dNCcb-18" style="edgeStyle=orthogonalEdgeStyle;shape=connector;rounded=0;orthogonalLoop=1;jettySize=auto;html=1;exitX=1;exitY=0.4;exitDx=0;exitDy=0;exitPerimeter=0;entryX=0;entryY=0.75;entryDx=0;entryDy=0;entryPerimeter=0;shadow=0;labelBackgroundColor=default;strokeColor=default;fontFamily=Helvetica;fontSize=1;fontColor=default;endArrow=none;endFill=0;" edge="1" parent="1" source="JkkX-00-tPhVeV8dNCcb-14" target="JkkX-00-tPhVeV8dNCcb-6">
          <mxGeometry relative="1" as="geometry" />
        </mxCell>
        <mxCell id="JkkX-00-tPhVeV8dNCcb-14" value="" style="points=[[0.03,0.03,0],[0.5,0,0],[0.97,0.03,0],[1,0.4,0],[0.97,0.745,0],[0.5,1,0],[0.03,0.745,0],[0,0.4,0]];verticalLabelPosition=bottom;sketch=0;html=1;verticalAlign=top;aspect=fixed;align=center;pointerEvents=1;shape=mxgraph.cisco19.workstation;fillColor=#005073;strokeColor=none;" vertex="1" parent="1">
          <mxGeometry x="120" y="270" width="50" height="40" as="geometry" />
        </mxCell>
        <mxCell id="JkkX-00-tPhVeV8dNCcb-19" style="edgeStyle=orthogonalEdgeStyle;shape=connector;rounded=0;orthogonalLoop=1;jettySize=auto;html=1;exitX=1;exitY=0.4;exitDx=0;exitDy=0;exitPerimeter=0;entryX=0;entryY=0.25;entryDx=0;entryDy=0;entryPerimeter=0;shadow=0;labelBackgroundColor=default;strokeColor=default;fontFamily=Helvetica;fontSize=1;fontColor=default;endArrow=none;endFill=0;" edge="1" parent="1" source="JkkX-00-tPhVeV8dNCcb-15" target="JkkX-00-tPhVeV8dNCcb-6">
          <mxGeometry relative="1" as="geometry" />
        </mxCell>
        <mxCell id="JkkX-00-tPhVeV8dNCcb-15" value="" style="points=[[0.03,0.03,0],[0.5,0,0],[0.97,0.03,0],[1,0.4,0],[0.97,0.745,0],[0.5,1,0],[0.03,0.745,0],[0,0.4,0]];verticalLabelPosition=bottom;sketch=0;html=1;verticalAlign=top;aspect=fixed;align=center;pointerEvents=1;shape=mxgraph.cisco19.workstation;fillColor=#005073;strokeColor=none;" vertex="1" parent="1">
          <mxGeometry x="120" y="230" width="50" height="40" as="geometry" />
        </mxCell>
        <mxCell id="JkkX-00-tPhVeV8dNCcb-30" style="edgeStyle=orthogonalEdgeStyle;shape=connector;rounded=0;orthogonalLoop=1;jettySize=auto;html=1;exitX=1;exitY=0.5;exitDx=0;exitDy=0;exitPerimeter=0;entryX=0;entryY=0.5;entryDx=0;entryDy=0;entryPerimeter=0;shadow=0;labelBackgroundColor=default;strokeColor=default;fontFamily=Helvetica;fontSize=1;fontColor=default;endArrow=none;endFill=0;" edge="1" parent="1" source="JkkX-00-tPhVeV8dNCcb-20" target="JkkX-00-tPhVeV8dNCcb-9">
          <mxGeometry relative="1" as="geometry" />
        </mxCell>
        <mxCell id="JkkX-00-tPhVeV8dNCcb-20" value="" style="sketch=0;points=[[0.015,0.015,0],[0.985,0.015,0],[0.985,0.985,0],[0.015,0.985,0],[0.25,0,0],[0.5,0,0],[0.75,0,0],[1,0.25,0],[1,0.5,0],[1,0.75,0],[0.75,1,0],[0.5,1,0],[0.25,1,0],[0,0.75,0],[0,0.5,0],[0,0.25,0]];verticalLabelPosition=bottom;html=1;verticalAlign=top;aspect=fixed;align=center;pointerEvents=1;shape=mxgraph.cisco19.rect;prIcon=l2_switch;fillColor=#FAFAFA;strokeColor=#005073;" vertex="1" parent="1">
          <mxGeometry x="215" y="345" width="50" height="50" as="geometry" />
        </mxCell>
        <mxCell id="JkkX-00-tPhVeV8dNCcb-21" style="edgeStyle=orthogonalEdgeStyle;shape=connector;rounded=0;orthogonalLoop=1;jettySize=auto;html=1;exitX=1;exitY=0.4;exitDx=0;exitDy=0;exitPerimeter=0;entryX=0;entryY=0.75;entryDx=0;entryDy=0;entryPerimeter=0;shadow=0;labelBackgroundColor=default;strokeColor=default;fontFamily=Helvetica;fontSize=1;fontColor=default;endArrow=none;endFill=0;" edge="1" parent="1" source="JkkX-00-tPhVeV8dNCcb-22" target="JkkX-00-tPhVeV8dNCcb-20">
          <mxGeometry relative="1" as="geometry" />
        </mxCell>
        <mxCell id="JkkX-00-tPhVeV8dNCcb-22" value="" style="points=[[0.03,0.03,0],[0.5,0,0],[0.97,0.03,0],[1,0.4,0],[0.97,0.745,0],[0.5,1,0],[0.03,0.745,0],[0,0.4,0]];verticalLabelPosition=bottom;sketch=0;html=1;verticalAlign=top;aspect=fixed;align=center;pointerEvents=1;shape=mxgraph.cisco19.workstation;fillColor=#005073;strokeColor=none;" vertex="1" parent="1">
          <mxGeometry x="120" y="375" width="50" height="40" as="geometry" />
        </mxCell>
        <mxCell id="JkkX-00-tPhVeV8dNCcb-23" style="edgeStyle=orthogonalEdgeStyle;shape=connector;rounded=0;orthogonalLoop=1;jettySize=auto;html=1;exitX=1;exitY=0.4;exitDx=0;exitDy=0;exitPerimeter=0;entryX=0;entryY=0.25;entryDx=0;entryDy=0;entryPerimeter=0;shadow=0;labelBackgroundColor=default;strokeColor=default;fontFamily=Helvetica;fontSize=1;fontColor=default;endArrow=none;endFill=0;" edge="1" parent="1" source="JkkX-00-tPhVeV8dNCcb-24" target="JkkX-00-tPhVeV8dNCcb-20">
          <mxGeometry relative="1" as="geometry" />
        </mxCell>
        <mxCell id="JkkX-00-tPhVeV8dNCcb-24" value="" style="points=[[0.03,0.03,0],[0.5,0,0],[0.97,0.03,0],[1,0.4,0],[0.97,0.745,0],[0.5,1,0],[0.03,0.745,0],[0,0.4,0]];verticalLabelPosition=bottom;sketch=0;html=1;verticalAlign=top;aspect=fixed;align=center;pointerEvents=1;shape=mxgraph.cisco19.workstation;fillColor=#005073;strokeColor=none;" vertex="1" parent="1">
          <mxGeometry x="120" y="335" width="50" height="40" as="geometry" />
        </mxCell>
        <mxCell id="JkkX-00-tPhVeV8dNCcb-31" style="edgeStyle=orthogonalEdgeStyle;shape=connector;rounded=0;orthogonalLoop=1;jettySize=auto;html=1;exitX=1;exitY=0.5;exitDx=0;exitDy=0;exitPerimeter=0;entryX=0.5;entryY=1;entryDx=0;entryDy=0;entryPerimeter=0;shadow=0;labelBackgroundColor=default;strokeColor=default;fontFamily=Helvetica;fontSize=1;fontColor=default;endArrow=none;endFill=0;" edge="1" parent="1" source="JkkX-00-tPhVeV8dNCcb-28" target="JkkX-00-tPhVeV8dNCcb-9">
          <mxGeometry relative="1" as="geometry" />
        </mxCell>
        <mxCell id="JkkX-00-tPhVeV8dNCcb-28" value="" style="sketch=0;points=[[0.015,0.015,0],[0.985,0.015,0],[0.985,0.985,0],[0.015,0.985,0],[0.25,0,0],[0.5,0,0],[0.75,0,0],[1,0.25,0],[1,0.5,0],[1,0.75,0],[0.75,1,0],[0.5,1,0],[0.25,1,0],[0,0.75,0],[0,0.5,0],[0,0.25,0]];verticalLabelPosition=bottom;html=1;verticalAlign=top;aspect=fixed;align=center;pointerEvents=1;shape=mxgraph.cisco19.rect;prIcon=l2_switch;fillColor=#FAFAFA;strokeColor=#005073;" vertex="1" parent="1">
          <mxGeometry x="215" y="452.5" width="50" height="50" as="geometry" />
        </mxCell>
        <mxCell id="JkkX-00-tPhVeV8dNCcb-35" style="edgeStyle=orthogonalEdgeStyle;shape=connector;rounded=0;orthogonalLoop=1;jettySize=auto;html=1;exitX=0;exitY=0.64;exitDx=0;exitDy=0;exitPerimeter=0;entryX=0.855;entryY=0.8555;entryDx=0;entryDy=0;entryPerimeter=0;shadow=0;labelBackgroundColor=default;strokeColor=default;fontFamily=Helvetica;fontSize=1;fontColor=default;endArrow=none;endFill=0;" edge="1" parent="1" source="JkkX-00-tPhVeV8dNCcb-33" target="JkkX-00-tPhVeV8dNCcb-9">
          <mxGeometry relative="1" as="geometry" />
        </mxCell>
        <mxCell id="JkkX-00-tPhVeV8dNCcb-33" value="ISP 2" style="points=[[0,0.64,0],[0.2,0.15,0],[0.4,0.01,0],[0.79,0.25,0],[1,0.65,0],[0.8,0.86,0],[0.41,1,0],[0.16,0.86,0]];verticalLabelPosition=bottom;sketch=0;html=1;verticalAlign=top;aspect=fixed;align=center;pointerEvents=1;shape=mxgraph.cisco19.cloud2;fillColor=#FFE9AA;strokeColor=none;" vertex="1" parent="1">
          <mxGeometry x="460" y="380" width="70.83" height="42.5" as="geometry" />
        </mxCell>
      </root>
    </mxGraphModel>
  </diagram>
</mxfile>
